<svg id="Capa_1" enable-background="new 0 0 512 512" height="512" viewBox="0 0 512 512" width="512" xmlns="http://www.w3.org/2000/svg"><g><path d="m471 260.024h-430c0-57.43 22.36-111.42 62.97-152.03 84.014-84.013 220.023-84.037 304.06 0 40.61 40.61 62.97 94.6 62.97 152.03z" fill="#e63950"/><path d="m471 260.024h-215v-215c118.833 0 215 96.157 215 215z" fill="#cd0000"/><path d="m0 245.024h512v30h-512z" fill="#00bff0"/><path d="m256 245.024h256v30h-256z" fill="#00a9de"/><g fill="#00bff0"><path d="m72 309.034h368v30h-368z"/><path d="m128 373.024h256v30h-256z"/><path d="m192 437.024h128v30h-128z"/></g><path d="m256 437.024h64v30h-64z" fill="#00a9de"/><path d="m256 373.024h128v30h-128z" fill="#00a9de"/><path d="m256 309.034h184v30h-184z" fill="#00a9de"/></g></svg>