<svg id="Capa_1" enable-background="new 0 0 510 510" height="512" viewBox="0 0 510 510" width="512" xmlns="http://www.w3.org/2000/svg"><g><path d="m348.404 174h74.096v-30h-74.096c-1.181-8.057-3.296-15.814-6.235-23.157 89.28-51.545-15.156 8.759 63.521-36.916l-15.063-25.945-63.574 36.908c-4.456-5.586-9.475-10.705-14.978-15.259l35.415-61.34-25.98-15-35.083 60.765c-12.285-5.186-25.777-8.056-39.927-8.056v206c14.15 0 27.642-2.87 39.927-8.055l35.083 60.765 25.98-15-35.415-61.34c5.512-4.562 10.539-9.689 15-15.286 2.389 1.379 63.136 36.451 65.117 37.595l15-25.98c-20.546-11.862-45.343-26.179-65.023-37.541 2.939-7.344 5.055-15.101 6.235-23.158z" fill="#ff9e22"/><path d="m261.5 80-19.11 18.04 19.11 11.96v34l-16 15 16 15v34l-23.19 15 23.19 15v77.85h-126v-315.85h126z" fill="#cef2fb"/><path d="m261.5 80-19.11 18.04 19.11 11.96v34l-16 15 16 15v34l-23.19 15 23.19 15v77.85h-63v-315.85h63z" fill="#a7eaf9"/><path d="m309.5 399c0 61.21-49.79 111-111 111s-111-49.79-111-111c0-56.12 41.86-102.65 96-109.99 0 0 8.87 18.2 13.96 18.2 4.507 0 13.744-14.383 16.04-18.2 54.14 7.34 96 53.87 96 109.99z" fill="#e6f8fc"/><path d="m309.5 399c0 61.21-49.79 111-111 111v-203c5.4-2.03 15-17.99 15-17.99 54.14 7.34 96 53.87 96 109.99z" fill="#cef2fb"/><path d="m245.5 399c0 25.92-21.08 47-47 47s-47-21.08-47-47c0-20.67 13.42-38.26 32-44.53v-65.46c9.597-1.309 19.856-1.384 30 0v65.46c18.58 6.27 32 23.86 32 44.53z" fill="#e63950"/><g fill="#cd0000"><path d="m245.5 399c0 25.92-21.08 47-47 47v-158c5.09 0 10.09.34 15 1.01v65.46c18.58 6.27 32 23.86 32 44.53z"/><path d="m198.5 208h63v30h-63z"/><path d="m198.5 144h63v30h-63z"/><path d="m198.5 80h63v30h-63z"/></g></g></svg>