<svg id="Capa_1" enable-background="new 0 0 510 510" height="512" viewBox="0 0 510 510" width="512" xmlns="http://www.w3.org/2000/svg"><g><path d="m425.197 174v-30h-19.787l22.393-22.394-21.213-21.212-43.606 43.606h-65.787v30h65.787l43.606 43.606 21.213-21.212-22.393-22.394z" fill="#00a9de"/><path d="m291.803 129.606 43.607-43.606h57.787v-30h-27.787l16.903-16.903-21.213-21.213-16.903 16.903v-27.787h-30v57.787l-43.607 43.607z" fill="#00a9de"/><path d="m291.803 188.394-21.213 21.212 43.607 43.607v57.787h30v-27.787l16.903 16.903 21.213-21.213-16.903-16.903h27.787v-30h-57.787z" fill="#00a9de"/><path d="m270.61 88h-29.413v142h29.413l41.587-41.587v-58.826z" fill="#cef2fb"/><path d="m256.197 80-16 15 16 15v34l-16 13.93 16 16.07v34l-11.45 15 11.45 15v77.85h-126v-315.85h126z" fill="#cef2fb"/><path d="m256.197 80-16 15 16 15v34l-16 13.93 16 16.07v34l-11.45 15 11.45 15v77.85h-63v-315.85h63z" fill="#a7eaf9"/><path d="m304.197 399c0 61.21-49.79 111-111 111s-111-49.79-111-111c0-56.12 41.86-102.65 96-109.99 0 0 9.61 19.37 15 21.75 4.851 2.219 13.223-17.365 15-21.75 54.14 7.34 96 53.87 96 109.99z" fill="#e6f8fc"/><path d="m304.197 399c0 61.21-49.79 111-111 111v-199.24c4.851 2.219 13.223-17.365 15-21.75 54.14 7.34 96 53.87 96 109.99z" fill="#cef2fb"/><path d="m240.197 399c0 25.92-21.08 47-47 47s-47-21.08-47-47c0-20.67 13.42-38.26 32-44.53v-65.46c9.596-1.309 19.857-1.384 30 0v65.46c18.58 6.27 32 23.86 32 44.53z" fill="#00bff0"/><g fill="#00a9de"><path d="m193.197 208h63v30h-63z"/><path d="m193.197 144h63v30h-63z"/><path d="m193.197 80h63v30h-63z"/><path d="m240.197 399c0 25.92-21.08 47-47 47v-158c5.09 0 10.09.34 15 1.01v65.46c18.58 6.27 32 23.86 32 44.53z"/></g></g></svg>