<svg id="Capa_1" enable-background="new 0 0 512 512" height="512" viewBox="0 0 512 512" width="512" xmlns="http://www.w3.org/2000/svg"><g><path d="m191.63 262.2h30v172.35h-30z" fill="#00607f"/><path d="m206.63 262.2h15v172.35h-15z" fill="#00465f"/><path d="m412.77 284.38c-18.742 1.528-31.225 2.026-51.92 7.561-28.617 7.671-43.22 17.154-59.15 26.51-7.953-13.831-8.6-16.902-17.5-22.93-35.997-24.39-119.318-24.31-155.12 0-8.868 5.994-9.504 9.006-17.51 22.93-16.931-9.943-30.793-18.91-59.16-26.51-20.681-5.535-33.145-6.03-51.91-7.561l3.3-16.529c9.39-46.92 34.6-89.66 71-120.34 119.822-101 303.45-35.769 334.66 120.34z" fill="#e63950"/><path d="m412.77 284.38c-18.742 1.528-31.225 2.026-51.92 7.561-28.617 7.671-43.22 17.154-59.15 26.51-7.953-13.831-8.6-16.902-17.5-22.93-20.06-13.592-52.853-18.32-77.57-18.32v-178.011c99.129 0 183.422 71.583 202.83 168.66z" fill="#cd0000"/><path d="m174.63 422.2h64v89.8h-64z" fill="#fc0"/><path d="m206.63 422.2h32v89.8h-32z" fill="#ff9e22"/><path d="m284.2 295.521c-6.79-4.601-16.34-8.86-28.1-12.101 11.823-57.799 9.499-127.654-5.34-179.36 11.48 2.55 22.72 6.1 33.59 10.58 12.419 56.547 12.377 124.613-.15 180.881z" fill="#b80000"/><path d="m157.17 283.42c-11.76 3.24-21.3 7.49-28.09 12.101-12.53-56.101-12.613-124.22-.17-180.87 10.88-4.49 22.12-8.04 33.59-10.59-14.977 52.249-17.056 122.035-5.33 179.359z" fill="#cd0000"/><path d="m481.5 0h30v48h-30z" fill="#00a9de"/><path d="m417.5 0h30v48h-30z" fill="#00a9de"/><path d="m353.5 0h30v48h-30z" fill="#00bff0"/><path d="m449.5 80h30v48h-30z" fill="#00a9de"/><path d="m385.5 80h30v48h-30z" fill="#00a9de"/><path d="m289.5 0h30v48h-30z" fill="#00bff0"/></g></svg>