<svg id="Capa_1" enable-background="new 0 0 511 511" height="512" viewBox="0 0 511 511" width="512" xmlns="http://www.w3.org/2000/svg"><g><path d="m128 112.5h80v30h-80z" fill="#e6f8fc"/><path d="m128 240.5h80v30h-80z" fill="#cef2fb"/><path d="m49 79.5h94v431h-94z" fill="#00607f"/><path d="m49 191.5h94v319h-94z" fill="#00465f"/><path d="m49 376.5h94v30h-94z" fill="#002c3c"/><path d="m0 480.5h192v30h-192z" fill="#002c3c"/><circle cx="96" cy="55.5" fill="#fc0" r="55"/><path d="m511 191.5c0 43.56-35.44 79-79 79h-27.85l-11.66-11.62-22.98 11.62h-63.43l-14.19-8.3-21.09 8.3h-77.8v-158h77.8l25.43 18.21 9.85-18.21h63.43l21.96 13.11 12.68-13.11h27.85c43.56 0 79 35.44 79 79z" fill="#00bff0"/><path d="m511 191.5c0 43.56-35.44 79-79 79h-27.85l-11.66-11.62-22.98 11.62h-63.43l-14.19-8.3-21.09 8.3h-77.8v-79z" fill="#00a9de"/><path d="m306.08 270.5h-35.28c33.673-47.238 33.633-110.818 0-158h35.28c26.303 48.626 26.922 108.229 0 158z" fill="#e63950"/><path d="m404.15 270.5h-34.64c31.351-47.806 31.452-110.041 0-158h34.64c25.199 49.5 25.234 108.432 0 158z" fill="#e63950"/><g fill="#cd0000"><path d="m296.04 191.5h30c0 27.84-6.94 54.93-19.96 79h-35.28c16.36-22.95 25.24-50.5 25.24-79z"/><path d="m423.06 191.5c0 27.72-6.56 54.74-18.91 79h-34.64c15.3-23.33 23.55-50.72 23.55-79z"/></g></g></svg>